<mxfile host="app.diagrams.net" modified="2024-05-11T06:38:45.475Z" agent="Mozilla/5.0 (Windows NT 10.0; Win64; x64) AppleWebKit/537.36 (KHTML, like Gecko) Chrome/124.0.0.0 Safari/537.36" etag="r8BXHp3pB_1zXjiqnX9d" version="24.3.1" type="device">
  <diagram name="Page-1" id="S39xUgSkvDpWdkWVzHwe">
    <mxGraphModel dx="1434" dy="772" grid="1" gridSize="10" guides="1" tooltips="1" connect="1" arrows="1" fold="1" page="1" pageScale="1" pageWidth="850" pageHeight="1100" math="0" shadow="0">
      <root>
        <mxCell id="0" />
        <mxCell id="1" parent="0" />
        <mxCell id="hHRZQARoXs9dlIis6INB-2" value="&lt;font style=&quot;font-size: 19px;&quot;&gt;pemilik rental&lt;/font&gt;" style="rounded=0;whiteSpace=wrap;html=1;" vertex="1" parent="1">
          <mxGeometry x="340" y="150" width="140" height="70" as="geometry" />
        </mxCell>
        <mxCell id="hHRZQARoXs9dlIis6INB-3" value="NO_HP" style="ellipse;whiteSpace=wrap;html=1;" vertex="1" parent="1">
          <mxGeometry x="560" y="35" width="120" height="40" as="geometry" />
        </mxCell>
        <mxCell id="hHRZQARoXs9dlIis6INB-4" value="NAMA" style="ellipse;whiteSpace=wrap;html=1;" vertex="1" parent="1">
          <mxGeometry x="300" y="35" width="120" height="40" as="geometry" />
        </mxCell>
        <mxCell id="hHRZQARoXs9dlIis6INB-5" value="ALAMAT" style="ellipse;whiteSpace=wrap;html=1;" vertex="1" parent="1">
          <mxGeometry x="430" y="35" width="120" height="40" as="geometry" />
        </mxCell>
        <mxCell id="hHRZQARoXs9dlIis6INB-6" value="ID_PEMILIK" style="ellipse;whiteSpace=wrap;html=1;" vertex="1" parent="1">
          <mxGeometry x="150" y="30" width="130" height="50" as="geometry" />
        </mxCell>
        <mxCell id="hHRZQARoXs9dlIis6INB-7" value="" style="endArrow=none;html=1;rounded=0;entryX=0.5;entryY=1;entryDx=0;entryDy=0;exitX=0;exitY=0;exitDx=0;exitDy=0;" edge="1" parent="1" source="hHRZQARoXs9dlIis6INB-2" target="hHRZQARoXs9dlIis6INB-6">
          <mxGeometry width="50" height="50" relative="1" as="geometry">
            <mxPoint x="400" y="220" as="sourcePoint" />
            <mxPoint x="450" y="170" as="targetPoint" />
          </mxGeometry>
        </mxCell>
        <mxCell id="hHRZQARoXs9dlIis6INB-8" value="" style="endArrow=none;html=1;rounded=0;entryX=0.5;entryY=1;entryDx=0;entryDy=0;exitX=0.25;exitY=0;exitDx=0;exitDy=0;" edge="1" parent="1" source="hHRZQARoXs9dlIis6INB-2" target="hHRZQARoXs9dlIis6INB-4">
          <mxGeometry width="50" height="50" relative="1" as="geometry">
            <mxPoint x="485" y="140" as="sourcePoint" />
            <mxPoint x="350" y="70" as="targetPoint" />
          </mxGeometry>
        </mxCell>
        <mxCell id="hHRZQARoXs9dlIis6INB-9" value="" style="endArrow=none;html=1;rounded=0;entryX=0.5;entryY=1;entryDx=0;entryDy=0;exitX=0.75;exitY=0;exitDx=0;exitDy=0;" edge="1" parent="1" source="hHRZQARoXs9dlIis6INB-2" target="hHRZQARoXs9dlIis6INB-5">
          <mxGeometry width="50" height="50" relative="1" as="geometry">
            <mxPoint x="395" y="160" as="sourcePoint" />
            <mxPoint x="370" y="85" as="targetPoint" />
          </mxGeometry>
        </mxCell>
        <mxCell id="hHRZQARoXs9dlIis6INB-10" value="" style="endArrow=none;html=1;rounded=0;entryX=0.5;entryY=1;entryDx=0;entryDy=0;exitX=1;exitY=0;exitDx=0;exitDy=0;" edge="1" parent="1" source="hHRZQARoXs9dlIis6INB-2" target="hHRZQARoXs9dlIis6INB-3">
          <mxGeometry width="50" height="50" relative="1" as="geometry">
            <mxPoint x="465" y="160" as="sourcePoint" />
            <mxPoint x="500" y="85" as="targetPoint" />
          </mxGeometry>
        </mxCell>
        <mxCell id="hHRZQARoXs9dlIis6INB-11" value="MENGELOLA" style="rhombus;whiteSpace=wrap;html=1;" vertex="1" parent="1">
          <mxGeometry x="340" y="330" width="120" height="80" as="geometry" />
        </mxCell>
        <mxCell id="hHRZQARoXs9dlIis6INB-12" value="" style="endArrow=none;html=1;rounded=0;entryX=0.443;entryY=0.986;entryDx=0;entryDy=0;entryPerimeter=0;exitX=0.5;exitY=0;exitDx=0;exitDy=0;" edge="1" parent="1" source="hHRZQARoXs9dlIis6INB-11" target="hHRZQARoXs9dlIis6INB-2">
          <mxGeometry width="50" height="50" relative="1" as="geometry">
            <mxPoint x="400" y="320" as="sourcePoint" />
            <mxPoint x="450" y="270" as="targetPoint" />
          </mxGeometry>
        </mxCell>
        <mxCell id="hHRZQARoXs9dlIis6INB-47" value="1" style="edgeLabel;html=1;align=center;verticalAlign=middle;resizable=0;points=[];fontSize=20;" vertex="1" connectable="0" parent="hHRZQARoXs9dlIis6INB-12">
          <mxGeometry x="0.0302" relative="1" as="geometry">
            <mxPoint as="offset" />
          </mxGeometry>
        </mxCell>
        <mxCell id="hHRZQARoXs9dlIis6INB-14" value="PENYEWAAN" style="ellipse;whiteSpace=wrap;html=1;" vertex="1" parent="1">
          <mxGeometry x="160" y="290" width="120" height="40" as="geometry" />
        </mxCell>
        <mxCell id="hHRZQARoXs9dlIis6INB-15" value="ID_MOBIL" style="ellipse;whiteSpace=wrap;html=1;" vertex="1" parent="1">
          <mxGeometry x="500" y="288" width="120" height="40" as="geometry" />
        </mxCell>
        <mxCell id="hHRZQARoXs9dlIis6INB-16" value="PENGEMBALIAN" style="ellipse;whiteSpace=wrap;html=1;" vertex="1" parent="1">
          <mxGeometry x="520" y="350" width="120" height="40" as="geometry" />
        </mxCell>
        <mxCell id="hHRZQARoXs9dlIis6INB-17" value="" style="endArrow=none;html=1;rounded=0;entryX=0.5;entryY=1;entryDx=0;entryDy=0;exitX=0;exitY=0.5;exitDx=0;exitDy=0;" edge="1" parent="1" source="hHRZQARoXs9dlIis6INB-11" target="hHRZQARoXs9dlIis6INB-14">
          <mxGeometry width="50" height="50" relative="1" as="geometry">
            <mxPoint x="400" y="320" as="sourcePoint" />
            <mxPoint x="450" y="270" as="targetPoint" />
          </mxGeometry>
        </mxCell>
        <mxCell id="hHRZQARoXs9dlIis6INB-18" value="" style="endArrow=none;html=1;rounded=0;entryX=0;entryY=0.5;entryDx=0;entryDy=0;exitX=1;exitY=0;exitDx=0;exitDy=0;" edge="1" parent="1" source="hHRZQARoXs9dlIis6INB-11" target="hHRZQARoXs9dlIis6INB-15">
          <mxGeometry width="50" height="50" relative="1" as="geometry">
            <mxPoint x="350" y="380" as="sourcePoint" />
            <mxPoint x="230" y="340" as="targetPoint" />
          </mxGeometry>
        </mxCell>
        <mxCell id="hHRZQARoXs9dlIis6INB-19" value="" style="endArrow=none;html=1;rounded=0;entryX=0;entryY=0.5;entryDx=0;entryDy=0;exitX=1;exitY=0.5;exitDx=0;exitDy=0;" edge="1" parent="1" source="hHRZQARoXs9dlIis6INB-11" target="hHRZQARoXs9dlIis6INB-16">
          <mxGeometry width="50" height="50" relative="1" as="geometry">
            <mxPoint x="440" y="360" as="sourcePoint" />
            <mxPoint x="510" y="318" as="targetPoint" />
          </mxGeometry>
        </mxCell>
        <mxCell id="hHRZQARoXs9dlIis6INB-20" value="MOBIL" style="rounded=0;whiteSpace=wrap;html=1;" vertex="1" parent="1">
          <mxGeometry x="340" y="520" width="120" height="60" as="geometry" />
        </mxCell>
        <mxCell id="hHRZQARoXs9dlIis6INB-21" value="" style="endArrow=none;html=1;rounded=0;exitX=0.5;exitY=0;exitDx=0;exitDy=0;entryX=0.5;entryY=1;entryDx=0;entryDy=0;" edge="1" parent="1" source="hHRZQARoXs9dlIis6INB-20" target="hHRZQARoXs9dlIis6INB-11">
          <mxGeometry width="50" height="50" relative="1" as="geometry">
            <mxPoint x="400" y="420" as="sourcePoint" />
            <mxPoint x="450" y="370" as="targetPoint" />
          </mxGeometry>
        </mxCell>
        <mxCell id="hHRZQARoXs9dlIis6INB-22" value="1" style="edgeLabel;html=1;align=center;verticalAlign=middle;resizable=0;points=[];fontSize=19;" vertex="1" connectable="0" parent="hHRZQARoXs9dlIis6INB-21">
          <mxGeometry x="0.0364" y="-2" relative="1" as="geometry">
            <mxPoint as="offset" />
          </mxGeometry>
        </mxCell>
        <mxCell id="hHRZQARoXs9dlIis6INB-23" value="MEREK" style="ellipse;whiteSpace=wrap;html=1;" vertex="1" parent="1">
          <mxGeometry x="110" y="450" width="120" height="30" as="geometry" />
        </mxCell>
        <mxCell id="hHRZQARoXs9dlIis6INB-24" value="HARGA" style="ellipse;whiteSpace=wrap;html=1;" vertex="1" parent="1">
          <mxGeometry x="170" y="590" width="90" height="35" as="geometry" />
        </mxCell>
        <mxCell id="hHRZQARoXs9dlIis6INB-25" value="ID_MOBIL" style="ellipse;whiteSpace=wrap;html=1;" vertex="1" parent="1">
          <mxGeometry x="240" y="430" width="90" height="40" as="geometry" />
        </mxCell>
        <mxCell id="hHRZQARoXs9dlIis6INB-26" value="TAHUN" style="ellipse;whiteSpace=wrap;html=1;" vertex="1" parent="1">
          <mxGeometry x="180" y="540" width="100" height="40" as="geometry" />
        </mxCell>
        <mxCell id="hHRZQARoXs9dlIis6INB-27" value="TIPE_MOBIL" style="ellipse;whiteSpace=wrap;html=1;" vertex="1" parent="1">
          <mxGeometry x="180" y="490" width="100" height="40" as="geometry" />
        </mxCell>
        <mxCell id="hHRZQARoXs9dlIis6INB-28" value="" style="endArrow=none;html=1;rounded=0;entryX=0.644;entryY=1.025;entryDx=0;entryDy=0;exitX=0.25;exitY=0;exitDx=0;exitDy=0;entryPerimeter=0;" edge="1" parent="1" source="hHRZQARoXs9dlIis6INB-20" target="hHRZQARoXs9dlIis6INB-25">
          <mxGeometry width="50" height="50" relative="1" as="geometry">
            <mxPoint x="400" y="520" as="sourcePoint" />
            <mxPoint x="450" y="470" as="targetPoint" />
          </mxGeometry>
        </mxCell>
        <mxCell id="hHRZQARoXs9dlIis6INB-29" value="" style="endArrow=none;html=1;rounded=0;entryX=1;entryY=0.5;entryDx=0;entryDy=0;exitX=0;exitY=0.75;exitDx=0;exitDy=0;" edge="1" parent="1" source="hHRZQARoXs9dlIis6INB-20" target="hHRZQARoXs9dlIis6INB-24">
          <mxGeometry width="50" height="50" relative="1" as="geometry">
            <mxPoint x="470" y="530" as="sourcePoint" />
            <mxPoint x="530" y="490" as="targetPoint" />
          </mxGeometry>
        </mxCell>
        <mxCell id="hHRZQARoXs9dlIis6INB-30" value="" style="endArrow=none;html=1;rounded=0;entryX=1;entryY=1;entryDx=0;entryDy=0;exitX=0;exitY=0;exitDx=0;exitDy=0;" edge="1" parent="1" source="hHRZQARoXs9dlIis6INB-20" target="hHRZQARoXs9dlIis6INB-23">
          <mxGeometry width="50" height="50" relative="1" as="geometry">
            <mxPoint x="470" y="560" as="sourcePoint" />
            <mxPoint x="530" y="543" as="targetPoint" />
          </mxGeometry>
        </mxCell>
        <mxCell id="hHRZQARoXs9dlIis6INB-31" value="" style="endArrow=none;html=1;rounded=0;entryX=1;entryY=0.5;entryDx=0;entryDy=0;exitX=0;exitY=0;exitDx=0;exitDy=0;" edge="1" parent="1" source="hHRZQARoXs9dlIis6INB-20" target="hHRZQARoXs9dlIis6INB-27">
          <mxGeometry width="50" height="50" relative="1" as="geometry">
            <mxPoint x="400" y="520" as="sourcePoint" />
            <mxPoint x="450" y="470" as="targetPoint" />
          </mxGeometry>
        </mxCell>
        <mxCell id="hHRZQARoXs9dlIis6INB-32" value="" style="endArrow=none;html=1;rounded=0;entryX=1;entryY=0.5;entryDx=0;entryDy=0;exitX=0;exitY=0.5;exitDx=0;exitDy=0;" edge="1" parent="1" source="hHRZQARoXs9dlIis6INB-20" target="hHRZQARoXs9dlIis6INB-26">
          <mxGeometry width="50" height="50" relative="1" as="geometry">
            <mxPoint x="350" y="530" as="sourcePoint" />
            <mxPoint x="290" y="520" as="targetPoint" />
          </mxGeometry>
        </mxCell>
        <mxCell id="hHRZQARoXs9dlIis6INB-33" value="PELANGGAN" style="rounded=0;whiteSpace=wrap;html=1;" vertex="1" parent="1">
          <mxGeometry x="760" y="520" width="120" height="60" as="geometry" />
        </mxCell>
        <mxCell id="hHRZQARoXs9dlIis6INB-36" value="ALAMAT" style="ellipse;whiteSpace=wrap;html=1;" vertex="1" parent="1">
          <mxGeometry x="720" y="425" width="80" height="50" as="geometry" />
        </mxCell>
        <mxCell id="hHRZQARoXs9dlIis6INB-37" value="NAMA" style="ellipse;whiteSpace=wrap;html=1;" vertex="1" parent="1">
          <mxGeometry x="820" y="425" width="60" height="45" as="geometry" />
        </mxCell>
        <mxCell id="hHRZQARoXs9dlIis6INB-38" value="" style="endArrow=none;html=1;rounded=0;entryX=0.5;entryY=1;entryDx=0;entryDy=0;exitX=0.25;exitY=0;exitDx=0;exitDy=0;" edge="1" parent="1" source="hHRZQARoXs9dlIis6INB-33" target="hHRZQARoXs9dlIis6INB-36">
          <mxGeometry width="50" height="50" relative="1" as="geometry">
            <mxPoint x="490" y="520" as="sourcePoint" />
            <mxPoint x="540" y="470" as="targetPoint" />
          </mxGeometry>
        </mxCell>
        <mxCell id="hHRZQARoXs9dlIis6INB-39" value="" style="endArrow=none;html=1;rounded=0;entryX=0.5;entryY=1;entryDx=0;entryDy=0;exitX=0.5;exitY=0;exitDx=0;exitDy=0;" edge="1" parent="1" source="hHRZQARoXs9dlIis6INB-33" target="hHRZQARoXs9dlIis6INB-37">
          <mxGeometry width="50" height="50" relative="1" as="geometry">
            <mxPoint x="800" y="530" as="sourcePoint" />
            <mxPoint x="770" y="485" as="targetPoint" />
          </mxGeometry>
        </mxCell>
        <mxCell id="hHRZQARoXs9dlIis6INB-40" value="NO_HP" style="ellipse;whiteSpace=wrap;html=1;" vertex="1" parent="1">
          <mxGeometry x="900" y="425" width="60" height="45" as="geometry" />
        </mxCell>
        <mxCell id="hHRZQARoXs9dlIis6INB-41" value="" style="endArrow=none;html=1;rounded=0;entryX=0.5;entryY=1;entryDx=0;entryDy=0;exitX=0.75;exitY=0;exitDx=0;exitDy=0;" edge="1" parent="1" source="hHRZQARoXs9dlIis6INB-33" target="hHRZQARoXs9dlIis6INB-40">
          <mxGeometry width="50" height="50" relative="1" as="geometry">
            <mxPoint x="830" y="530" as="sourcePoint" />
            <mxPoint x="860" y="480" as="targetPoint" />
          </mxGeometry>
        </mxCell>
        <mxCell id="hHRZQARoXs9dlIis6INB-42" value="ID_PELANGGAN" style="ellipse;whiteSpace=wrap;html=1;" vertex="1" parent="1">
          <mxGeometry x="930" y="510" width="120" height="45" as="geometry" />
        </mxCell>
        <mxCell id="hHRZQARoXs9dlIis6INB-43" value="" style="endArrow=none;html=1;rounded=0;entryX=0;entryY=0.5;entryDx=0;entryDy=0;exitX=1;exitY=0.25;exitDx=0;exitDy=0;" edge="1" parent="1" source="hHRZQARoXs9dlIis6INB-33" target="hHRZQARoXs9dlIis6INB-42">
          <mxGeometry width="50" height="50" relative="1" as="geometry">
            <mxPoint x="860" y="530" as="sourcePoint" />
            <mxPoint x="940" y="480" as="targetPoint" />
          </mxGeometry>
        </mxCell>
        <mxCell id="hHRZQARoXs9dlIis6INB-44" value="MENYEWA" style="rhombus;whiteSpace=wrap;html=1;" vertex="1" parent="1">
          <mxGeometry x="560" y="510" width="80" height="80" as="geometry" />
        </mxCell>
        <mxCell id="hHRZQARoXs9dlIis6INB-45" value="" style="endArrow=none;html=1;rounded=0;entryX=0;entryY=0.5;entryDx=0;entryDy=0;exitX=1;exitY=0.5;exitDx=0;exitDy=0;" edge="1" parent="1" source="hHRZQARoXs9dlIis6INB-20" target="hHRZQARoXs9dlIis6INB-44">
          <mxGeometry width="50" height="50" relative="1" as="geometry">
            <mxPoint x="400" y="620" as="sourcePoint" />
            <mxPoint x="450" y="570" as="targetPoint" />
          </mxGeometry>
        </mxCell>
        <mxCell id="hHRZQARoXs9dlIis6INB-46" value="&lt;font style=&quot;font-size: 18px;&quot;&gt;MANY&lt;/font&gt;" style="edgeLabel;html=1;align=center;verticalAlign=middle;resizable=0;points=[];fontSize=22;" vertex="1" connectable="0" parent="hHRZQARoXs9dlIis6INB-45">
          <mxGeometry x="0.16" relative="1" as="geometry">
            <mxPoint as="offset" />
          </mxGeometry>
        </mxCell>
        <mxCell id="hHRZQARoXs9dlIis6INB-48" value="" style="endArrow=none;html=1;rounded=0;entryX=0;entryY=0.5;entryDx=0;entryDy=0;exitX=1;exitY=0.5;exitDx=0;exitDy=0;" edge="1" parent="1" source="hHRZQARoXs9dlIis6INB-44" target="hHRZQARoXs9dlIis6INB-33">
          <mxGeometry width="50" height="50" relative="1" as="geometry">
            <mxPoint x="430" y="530" as="sourcePoint" />
            <mxPoint x="480" y="480" as="targetPoint" />
          </mxGeometry>
        </mxCell>
        <mxCell id="hHRZQARoXs9dlIis6INB-49" value="&lt;font style=&quot;font-size: 16px;&quot;&gt;MANY&lt;/font&gt;" style="edgeLabel;html=1;align=center;verticalAlign=middle;resizable=0;points=[];" vertex="1" connectable="0" parent="hHRZQARoXs9dlIis6INB-48">
          <mxGeometry x="0.1029" y="-2" relative="1" as="geometry">
            <mxPoint as="offset" />
          </mxGeometry>
        </mxCell>
        <mxCell id="hHRZQARoXs9dlIis6INB-52" value="" style="endArrow=none;html=1;rounded=0;entryX=0.5;entryY=1;entryDx=0;entryDy=0;exitX=0;exitY=0;exitDx=0;exitDy=0;" edge="1" parent="1" source="hHRZQARoXs9dlIis6INB-44" target="hHRZQARoXs9dlIis6INB-65">
          <mxGeometry width="50" height="50" relative="1" as="geometry">
            <mxPoint x="420" y="630" as="sourcePoint" />
            <mxPoint x="530" y="500" as="targetPoint" />
          </mxGeometry>
        </mxCell>
        <mxCell id="hHRZQARoXs9dlIis6INB-53" value="" style="endArrow=none;html=1;rounded=0;entryX=0.5;entryY=1;entryDx=0;entryDy=0;exitX=1;exitY=0;exitDx=0;exitDy=0;" edge="1" parent="1" source="hHRZQARoXs9dlIis6INB-44" target="hHRZQARoXs9dlIis6INB-66">
          <mxGeometry width="50" height="50" relative="1" as="geometry">
            <mxPoint x="420" y="630" as="sourcePoint" />
            <mxPoint x="655" y="490" as="targetPoint" />
          </mxGeometry>
        </mxCell>
        <mxCell id="hHRZQARoXs9dlIis6INB-56" value="" style="endArrow=none;html=1;rounded=0;entryX=0;entryY=1;entryDx=0;entryDy=0;exitX=0.5;exitY=0;exitDx=0;exitDy=0;" edge="1" parent="1" source="hHRZQARoXs9dlIis6INB-67" target="hHRZQARoXs9dlIis6INB-44">
          <mxGeometry width="50" height="50" relative="1" as="geometry">
            <mxPoint x="535" y="610" as="sourcePoint" />
            <mxPoint x="470" y="580" as="targetPoint" />
          </mxGeometry>
        </mxCell>
        <mxCell id="hHRZQARoXs9dlIis6INB-57" value="" style="endArrow=none;html=1;rounded=0;entryX=1;entryY=1;entryDx=0;entryDy=0;exitX=0.5;exitY=0;exitDx=0;exitDy=0;" edge="1" parent="1" source="hHRZQARoXs9dlIis6INB-68" target="hHRZQARoXs9dlIis6INB-44">
          <mxGeometry width="50" height="50" relative="1" as="geometry">
            <mxPoint x="655" y="610" as="sourcePoint" />
            <mxPoint x="590" y="580" as="targetPoint" />
          </mxGeometry>
        </mxCell>
        <mxCell id="hHRZQARoXs9dlIis6INB-65" value="ID_MOBIL" style="ellipse;whiteSpace=wrap;html=1;" vertex="1" parent="1">
          <mxGeometry x="480" y="450" width="90" height="40" as="geometry" />
        </mxCell>
        <mxCell id="hHRZQARoXs9dlIis6INB-66" value="TGL_KEMBALI" style="ellipse;whiteSpace=wrap;html=1;" vertex="1" parent="1">
          <mxGeometry x="590" y="455" width="120" height="30" as="geometry" />
        </mxCell>
        <mxCell id="hHRZQARoXs9dlIis6INB-67" value="ID_PENYEWAAN" style="ellipse;whiteSpace=wrap;html=1;" vertex="1" parent="1">
          <mxGeometry x="480" y="610" width="100" height="40" as="geometry" />
        </mxCell>
        <mxCell id="hHRZQARoXs9dlIis6INB-68" value="ID_PELANGGAN" style="ellipse;whiteSpace=wrap;html=1;" vertex="1" parent="1">
          <mxGeometry x="610" y="610" width="100" height="40" as="geometry" />
        </mxCell>
        <mxCell id="hHRZQARoXs9dlIis6INB-69" value="TGL_SEWA" style="ellipse;whiteSpace=wrap;html=1;" vertex="1" parent="1">
          <mxGeometry x="720" y="600" width="90" height="35" as="geometry" />
        </mxCell>
        <mxCell id="hHRZQARoXs9dlIis6INB-70" value="" style="endArrow=none;html=1;rounded=0;entryX=0;entryY=0;entryDx=0;entryDy=0;exitX=0.863;exitY=0.65;exitDx=0;exitDy=0;exitPerimeter=0;" edge="1" parent="1" source="hHRZQARoXs9dlIis6INB-44" target="hHRZQARoXs9dlIis6INB-69">
          <mxGeometry width="50" height="50" relative="1" as="geometry">
            <mxPoint x="630" y="540" as="sourcePoint" />
            <mxPoint x="660" y="495" as="targetPoint" />
          </mxGeometry>
        </mxCell>
      </root>
    </mxGraphModel>
  </diagram>
</mxfile>
